# xmcd
#
# Track frame offsets:
#	150
#	11700
#	21910
#	34220
#	51098
#	63165
#	80135
#	90655
#	101690
#	112023
#	123246
#	135491
#	148348
#	158653
#	167378
#
# Disc length: 2409 seconds
#
# Revision: 0
# Processed by: cddbd v1.5.2PL0 Copyright (c) Steve Scherf et al.
# Submitted via: EasyCDDAExtractor 16.0.8.1
#
DISCID=c609670f
DTITLE=Rita Pavone - Le Piu' Belle Di Sempre
DYEAR=1900
DGENRE=
TTITLE0=Fortissimo
TTITLE1=Il Geghegé
TTITLE2=Come te non
TTITLE3=Stai Con Me
TTITLE4=Sul Cucuzzolo
TTITLE5=Cuore
TTITLE6=Il Ballo Del Mattone
TTITLE7=Che M'Importa Del Mondo
TTITLE8=Alla Mia Etá
TTITLE9=Pel Di Carota
TTITLE10=NonÉ Facile
TTITLE11=Datemi Un Martello
TTITLE12=La Partitia
TTITLE13=Amore Twist
TTITLE14=Qui Ritornera
EXTD=
EXTT0=
EXTT1=
EXTT2=
EXTT3=
EXTT4=
EXTT5=
EXTT6=
EXTT7=
EXTT8=
EXTT9=
EXTT10=
EXTT11=
EXTT12=
EXTT13=
EXTT14=
PLAYORDER=
